<svg id="visual" viewBox="0 0 960 300" width="960" height="300" xmlns="http://www.w3.org/2000/svg"
     xmlns:xlink="http://www.w3.org/1999/xlink" version="1.1">
    <g transform="translate(480.6669583190842 138.24281594753862)">
        <path d="M93 -125C112.5 -113.8 114.7 -75.9 125.8 -41C137 -6.2 156.9 25.6 154.8 55.8C152.6 86.1 128.3 114.6 98.8 132.7C69.4 150.8 34.7 158.4 8.2 147.2C-18.4 136 -36.7 105.9 -58.3 85.2C-79.9 64.6 -104.6 53.3 -124.9 31.1C-145.2 8.9 -161 -24.3 -155 -52.6C-148.9 -80.9 -120.9 -104.4 -91.4 -112.3C-61.9 -120.2 -31 -112.6 2.9 -116.6C36.7 -120.6 73.5 -136.1 93 -125"
              fill="#1ac7b2"></path>
    </g>
</svg>