<svg id="visual"
     viewBox="0 0 960 300"
     width="960"
     height="300"
     xmlns="http://www.w3.org/2000/svg"

     xmlns:xlink="http://www.w3.org/1999/xlink" version="1.1">
    <g transform="translate(469.9240852763612 138.39450974795005)">
        <!--suppress CheckTagEmptyBody -->
        <path d="M52 -80C67.2 -60.5 79.2 -45.1 99.4 -22.9C119.5 -0.7 147.7 28.2 150.9 58.4C154 88.7 132.1 120.2 102.8 138.3C73.5 156.5 36.7 161.2 6.7 152C-23.3 142.8 -46.6 119.5 -71.7 100C-96.7 80.5 -123.5 64.6 -129.6 42.8C-135.7 21 -121.1 -6.8 -110.7 -35C-100.2 -63.3 -93.9 -91.9 -76.1 -110.6C-58.4 -129.4 -29.2 -138.2 -5.4 -130.7C18.4 -123.3 36.7 -99.6 52 -80"
              fill="#1ac7b2">
        </path>
    </g>
</svg>