<svg id="visual" viewBox="0 0 960 300" width="960" height="300" xmlns="http://www.w3.org/2000/svg" xmlns:xlink="http://www.w3.org/1999/xlink" version="1.1"><rect x="0" y="0" width="960" height="300" fill="#000000"></rect><path d="M0 214L26.7 191C53.3 168 106.7 122 160 109.7C213.3 97.3 266.7 118.7 320 141.8C373.3 165 426.7 190 480 206C533.3 222 586.7 229 640 225.3C693.3 221.7 746.7 207.3 800 183.8C853.3 160.3 906.7 127.7 933.3 111.3L960 95L960 301L933.3 301C906.7 301 853.3 301 800 301C746.7 301 693.3 301 640 301C586.7 301 533.3 301 480 301C426.7 301 373.3 301 320 301C266.7 301 213.3 301 160 301C106.7 301 53.3 301 26.7 301L0 301Z" fill="#5b0ead" stroke-linecap="round" stroke-linejoin="miter"></path></svg>