<svg id="visual" viewBox="0 0 960 300" width="960" height="300" xmlns="http://www.w3.org/2000/svg" xmlns:xlink="http://www.w3.org/1999/xlink" version="1.1"><rect x="0" y="0" width="960" height="300" fill="#000000"></rect><path d="M0 177L26.7 178.8C53.3 180.7 106.7 184.3 160 181.2C213.3 178 266.7 168 320 172.2C373.3 176.3 426.7 194.7 480 207C533.3 219.3 586.7 225.7 640 221.7C693.3 217.7 746.7 203.3 800 194.8C853.3 186.3 906.7 183.7 933.3 182.3L960 181L960 0L933.3 0C906.7 0 853.3 0 800 0C746.7 0 693.3 0 640 0C586.7 0 533.3 0 480 0C426.7 0 373.3 0 320 0C266.7 0 213.3 0 160 0C106.7 0 53.3 0 26.7 0L0 0Z" fill="#24148f"></path><path d="M0 164L26.7 164.3C53.3 164.7 106.7 165.3 160 164.3C213.3 163.3 266.7 160.7 320 155.7C373.3 150.7 426.7 143.3 480 148.8C533.3 154.3 586.7 172.7 640 173.5C693.3 174.3 746.7 157.7 800 149.2C853.3 140.7 906.7 140.3 933.3 140.2L960 140L960 0L933.3 0C906.7 0 853.3 0 800 0C746.7 0 693.3 0 640 0C586.7 0 533.3 0 480 0C426.7 0 373.3 0 320 0C266.7 0 213.3 0 160 0C106.7 0 53.3 0 26.7 0L0 0Z" fill="#39189d"></path><path d="M0 130L26.7 127.7C53.3 125.3 106.7 120.7 160 120.2C213.3 119.7 266.7 123.3 320 125.2C373.3 127 426.7 127 480 126.2C533.3 125.3 586.7 123.7 640 123.5C693.3 123.3 746.7 124.7 800 127.7C853.3 130.7 906.7 135.3 933.3 137.7L960 140L960 0L933.3 0C906.7 0 853.3 0 800 0C746.7 0 693.3 0 640 0C586.7 0 533.3 0 480 0C426.7 0 373.3 0 320 0C266.7 0 213.3 0 160 0C106.7 0 53.3 0 26.7 0L0 0Z" fill="#4d1cab"></path><path d="M0 66L26.7 70.8C53.3 75.7 106.7 85.3 160 86C213.3 86.7 266.7 78.3 320 72.3C373.3 66.3 426.7 62.7 480 63.5C533.3 64.3 586.7 69.7 640 76.3C693.3 83 746.7 91 800 92.3C853.3 93.7 906.7 88.3 933.3 85.7L960 83L960 0L933.3 0C906.7 0 853.3 0 800 0C746.7 0 693.3 0 640 0C586.7 0 533.3 0 480 0C426.7 0 373.3 0 320 0C266.7 0 213.3 0 160 0C106.7 0 53.3 0 26.7 0L0 0Z" fill="#6020b9"></path><path d="M0 63L26.7 63.8C53.3 64.7 106.7 66.3 160 62.7C213.3 59 266.7 50 320 46C373.3 42 426.7 43 480 46.3C533.3 49.7 586.7 55.3 640 55.8C693.3 56.3 746.7 51.7 800 50.2C853.3 48.7 906.7 50.3 933.3 51.2L960 52L960 0L933.3 0C906.7 0 853.3 0 800 0C746.7 0 693.3 0 640 0C586.7 0 533.3 0 480 0C426.7 0 373.3 0 320 0C266.7 0 213.3 0 160 0C106.7 0 53.3 0 26.7 0L0 0Z" fill="#7324c7"></path></svg>