<svg id="visual" viewBox="0 0 960 300" width="960" height="300" xmlns="http://www.w3.org/2000/svg" xmlns:xlink="http://www.w3.org/1999/xlink" version="1.1"><rect x="0" y="0" width="960" height="300" fill="#000000"></rect><path d="M0 93L26.7 93.2C53.3 93.3 106.7 93.7 160 97.3C213.3 101 266.7 108 320 115.2C373.3 122.3 426.7 129.7 480 131.7C533.3 133.7 586.7 130.3 640 121.8C693.3 113.3 746.7 99.7 800 102.5C853.3 105.3 906.7 124.7 933.3 134.3L960 144L960 301L933.3 301C906.7 301 853.3 301 800 301C746.7 301 693.3 301 640 301C586.7 301 533.3 301 480 301C426.7 301 373.3 301 320 301C266.7 301 213.3 301 160 301C106.7 301 53.3 301 26.7 301L0 301Z" fill="#24148f"></path><path d="M0 178L26.7 166.3C53.3 154.7 106.7 131.3 160 130.3C213.3 129.3 266.7 150.7 320 153.5C373.3 156.3 426.7 140.7 480 134.8C533.3 129 586.7 133 640 139.5C693.3 146 746.7 155 800 154.2C853.3 153.3 906.7 142.7 933.3 137.3L960 132L960 301L933.3 301C906.7 301 853.3 301 800 301C746.7 301 693.3 301 640 301C586.7 301 533.3 301 480 301C426.7 301 373.3 301 320 301C266.7 301 213.3 301 160 301C106.7 301 53.3 301 26.7 301L0 301Z" fill="#39189d"></path><path d="M0 174L26.7 179.7C53.3 185.3 106.7 196.7 160 192.7C213.3 188.7 266.7 169.3 320 161.3C373.3 153.3 426.7 156.7 480 157.7C533.3 158.7 586.7 157.3 640 162.3C693.3 167.3 746.7 178.7 800 179.3C853.3 180 906.7 170 933.3 165L960 160L960 301L933.3 301C906.7 301 853.3 301 800 301C746.7 301 693.3 301 640 301C586.7 301 533.3 301 480 301C426.7 301 373.3 301 320 301C266.7 301 213.3 301 160 301C106.7 301 53.3 301 26.7 301L0 301Z" fill="#4d1cab"></path><path d="M0 230L26.7 227C53.3 224 106.7 218 160 211.2C213.3 204.3 266.7 196.7 320 197.3C373.3 198 426.7 207 480 208.7C533.3 210.3 586.7 204.7 640 202C693.3 199.3 746.7 199.7 800 200.5C853.3 201.3 906.7 202.7 933.3 203.3L960 204L960 301L933.3 301C906.7 301 853.3 301 800 301C746.7 301 693.3 301 640 301C586.7 301 533.3 301 480 301C426.7 301 373.3 301 320 301C266.7 301 213.3 301 160 301C106.7 301 53.3 301 26.7 301L0 301Z" fill="#6020b9"></path><path d="M0 240L26.7 244.3C53.3 248.7 106.7 257.3 160 260.2C213.3 263 266.7 260 320 259.8C373.3 259.7 426.7 262.3 480 263.8C533.3 265.3 586.7 265.7 640 263.3C693.3 261 746.7 256 800 253C853.3 250 906.7 249 933.3 248.5L960 248L960 301L933.3 301C906.7 301 853.3 301 800 301C746.7 301 693.3 301 640 301C586.7 301 533.3 301 480 301C426.7 301 373.3 301 320 301C266.7 301 213.3 301 160 301C106.7 301 53.3 301 26.7 301L0 301Z" fill="#7324c7"></path></svg>