<svg id="visual" viewBox="0 0 960 300" width="960" height="300" xmlns="http://www.w3.org/2000/svg" xmlns:xlink="http://www.w3.org/1999/xlink" version="1.1"><rect x="0" y="0" width="960" height="300" fill="#000"></rect><path d="M0 77L22.8 93.2C45.7 109.3 91.3 141.7 137 148C182.7 154.3 228.3 134.7 274 120.3C319.7 106 365.3 97 411.2 87.7C457 78.3 503 68.7 548.8 68.8C594.7 69 640.3 79 686 88.5C731.7 98 777.3 107 823 117C868.7 127 914.3 138 937.2 143.5L960 149L960 0L937.2 0C914.3 0 868.7 0 823 0C777.3 0 731.7 0 686 0C640.3 0 594.7 0 548.8 0C503 0 457 0 411.2 0C365.3 0 319.7 0 274 0C228.3 0 182.7 0 137 0C91.3 0 45.7 0 22.8 0L0 0Z" fill="#7324c7" stroke-linecap="round" stroke-linejoin="miter"></path></svg>